PathFileType	4	(x/y/z)	S09_P20_T14
DataRate	CameraRate	NumFrames	NumMarkers	Units	OrigDataRate	OrigDataStartFrame	OrigNumFrames
240	240	10	51	mm	240	50	398
Frame#	Time	Sternum			R.Acromium			L.Acromium			Top.Head			R.ASIS			L.ASIS			R.PSIS			L.PSIS			R.Great.Tro			L.Great.Tro			R.Iliac.Crest			L.Iliac.Crest			V.Sacral			R.Thigh.Upper.Post			R.Thigh.Lower.Ant			R.Thigh.Lower.Post			R.Thigh.Upper.Ant			R.Knee.Lat			R.Knee.Med			R.Shank.Upper.Post			R.Shank.Lower.Ant			R.Shank.Lower.Post			R.Shank.Upper.Ant			R.Ankle.Lat			R.Ankle.Med			R.Heel.Upper			R.Heel.Med			R.Heel.Lat			R.Toe.Lat			R.Toe.Med			R.Toe.Tip			L.Thigh.Upper.Post			L.Thigh.Lower.Ant			L.Thigh.Lower.Post			L.Thigh.Upper.Ant			L.Knee.Lat			L.Knee.Med			L.Shank.Upper.Post			L.Shank.Lower.Ant			L.Shank.Lower.Post			L.Shank.Upper.Ant			L.Ankle.Lat			L.Ankle.Med			L.Heel.Upper			L.Heel.Med			L.Heel.Lat			L.Toe.Lat			L.Toe.Med			L.Toe.Tip			Cervical.Spine			Back			
		X1	Y1	Z1	X2	Y2	Z2	X3	Y3	Z3	X4	Y4	Z4	X5	Y5	Z5	X6	Y6	Z6	X7	Y7	Z7	X8	Y8	Z8	X9	Y9	Z9	X10	Y10	Z10	X11	Y11	Z11	X12	Y12	Z12	X13	Y13	Z13	X14	Y14	Z14	X15	Y15	Z15	X16	Y16	Z16	X17	Y17	Z17	X18	Y18	Z18	X19	Y19	Z19	X20	Y20	Z20	X21	Y21	Z21	X22	Y22	Z22	X23	Y23	Z23	X24	Y24	Z24	X25	Y25	Z25	X26	Y26	Z26	X27	Y27	Z27	X28	Y28	Z28	X29	Y29	Z29	X30	Y30	Z30	X31	Y31	Z31	X32	Y32	Z32	X33	Y33	Z33	X34	Y34	Z34	X35	Y35	Z35	X36	Y36	Z36	X37	Y37	Z37	X38	Y38	Z38	X39	Y39	Z39	X40	Y40	Z40	X41	Y41	Z41	X42	Y42	Z42	X43	Y43	Z43	X44	Y44	Z44	X45	Y45	Z45	X46	Y46	Z46	X47	Y47	Z47	X48	Y48	Z48	X49	Y49	Z49	X50	Y50	Z50	X51	Y51	Z51	

50	0.20417	NaN	NaN	NaN	-1240.3	1441.6	490.53	-1233.9	1436.7	176.21	-1205.7	1744.9	340.81	-1149.6	1017.6	448.08	NaN	NaN	NaN	-1376.2	1043.3	373.52	-1368.4	1048	283.93	-1234.6	929.77	521.46	-1215.8	936.6	134.5	-1236.8	1095.2	492.69	-1256.1	1121.9	171.68	-1387.7	1009.1	323.51	-1202.9	685.54	513.69	-1112.4	592.29	499.41	-1192.6	592.83	494.73	-1129.5	680.81	515.12	-1136.5	508.59	490.99	-1126.4	493.12	368.61	-1300.7	434.39	487.77	-1304.3	341.6	480.63	-1359.2	387.19	474.53	-1249.1	393.53	494.33	-1483.6	248.48	452.18	-1448.4	226.41	372.22	-1521.5	292.26	392.36	-1538	266.76	361.78	-1553.1	277.57	424.51	-1496.4	132.21	488.33	-1454.5	90.438	392.99	-1421.5	61.701	439.43	-1247.6	672.58	193.24	-1151.5	588.57	195.92	-1222.9	589.48	216.89	-1177.3	669.87	170.44	-1158.3	507.93	214.05	-1138.4	527.56	343.08	-1204.3	374.92	206.98	-1141.5	285.27	224.34	-1203.4	298.24	215.97	-1142	362.94	215.04	-1190	102.12	249.46	-1172.4	99.838	341.06	-1258.7	70.079	307.7	-1245.5	47.898	339.12	-1260	41.246	279.3	-1087.7	41.845	219.07	-1048	45.82	327.01	-998.94	62.277	265.87	-1322.5	1483.4	342.67	-1362.3	1218.3	331.17
51	0.20833	NaN	NaN	NaN	-1234.9	1442.5	490.21	-1228.3	1437.7	175.91	-1200.4	1745.9	340.49	-1144.4	1018.9	447.71	NaN	NaN	NaN	-1371	1044.4	372.8	-1363.1	1049.1	283.21	-1229.4	931.02	521.03	-1210.8	937.14	134.24	-1231.9	1096.5	492.19	-1250.7	1122.7	171.1	-1382.6	1010.2	322.82	-1194.5	687.11	513.82	-1103.6	594.67	499.08	-1183.7	594.46	495.06	-1121.4	683.06	514.81	-1127	510.65	490.86	-1116.8	495.41	368.33	-1290.5	434.78	487.78	-1293.2	342.21	480.39	-1348.7	387.07	474.7	-1238.7	394.57	494.08	-1471.7	247.85	452.26	-1436.5	225.82	372.16	-1510.9	290.21	392.05	-1527	264.11	361.68	-1542	275.32	424.38	-1482.1	131.78	489.41	-1439.8	90.014	394.37	-1406	62.155	441.24	-1244.8	673.56	193.36	-1149.3	588.73	195.76	-1220.7	590.24	216.88	-1174.6	670.28	170.38	-1156.7	508.07	213.87	-1136.6	527.54	342.92	-1203.2	375.16	206.81	-1140.7	285.28	224.24	-1202.6	298.48	215.81	-1141	362.95	214.92	-1189.9	102.23	249.47	-1172.2	100.02	341.04	-1258.6	70.229	307.72	-1245.5	48.019	339.11	-1259.9	41.43	279.3	-1087.6	41.822	219.05	-1048	45.741	327	-998.88	62.136	265.84	-1317.2	1484.4	342.2	-1357.1	1219.3	330.49
52	0.2125	NaN	NaN	NaN	-1229.5	1443.3	489.9	-1222.7	1438.6	175.63	-1195	1746.8	340.19	-1139.3	1020.2	447.36	NaN	NaN	NaN	-1365.9	1045.6	372.09	-1357.9	1050.2	282.49	-1224.3	932.3	520.63	-1205.9	937.67	134.04	-1227	1097.7	491.68	-1245.1	1123.4	170.53	-1377.4	1011.4	322.14	-1186.2	688.7	513.96	-1094.9	597.07	498.68	-1174.8	596.13	495.4	-1113.4	685.33	514.44	-1117.5	512.74	490.67	-1107.3	497.7	368.01	-1280.5	435.05	487.76	-1282.1	342.73	480.16	-1338.2	386.76	474.86	-1228.3	395.55	493.8	-1459.7	246.94	452.35	-1424.4	224.99	372.13	-1500.1	287.84	391.78	-1515.9	261.13	361.6	-1530.8	272.7	424.27	-1467.6	131.1	490.49	-1424.8	89.405	395.74	-1390.3	62.489	443.02	-1242	674.55	193.46	-1147.1	588.91	195.6	-1218.6	591.02	216.84	-1171.9	670.7	170.31	-1155.2	508.23	213.67	-1134.8	527.54	342.75	-1202.2	375.42	206.63	-1139.9	285.31	224.12	-1201.7	298.75	215.63	-1140	362.97	214.79	-1189.7	102.34	249.48	-1172	100.22	341	-1258.6	70.385	307.74	-1245.4	48.154	339.08	-1259.9	41.618	279.3	-1087.6	41.794	219.03	-1048	45.673	326.98	-998.82	61.993	265.81	-1311.9	1485.3	341.73	-1351.8	1220.3	329.81
53	0.21667	NaN	NaN	NaN	-1224	1444.2	489.59	-1217.1	1439.6	175.36	-1189.7	1747.7	339.89	-1134.2	1021.5	447.04	NaN	NaN	NaN	-1360.8	1046.8	371.38	-1352.6	1051.3	281.77	-1219.1	933.61	520.25	-1200.9	938.19	133.87	-1222.2	1099	491.16	-1239.6	1124.1	169.96	-1372.3	1012.6	321.46	-1178	690.31	514.1	-1086.3	599.49	498.21	-1166	597.83	495.73	-1105.4	687.61	514.03	-1108.1	514.84	490.42	-1097.9	499.99	367.65	-1270.5	435.2	487.71	-1270.9	343.15	479.93	-1327.6	386.27	475	-1217.9	396.46	493.51	-1447.6	245.77	452.46	-1412.2	223.93	372.13	-1489.2	285.17	391.54	-1504.5	257.86	361.56	-1519.3	269.74	424.2	-1453	130.18	491.57	-1409.6	88.624	397.08	-1374.4	62.701	444.76	-1239.2	675.56	193.55	-1145	589.1	195.43	-1216.4	591.8	216.77	-1169.2	671.14	170.24	-1153.6	508.41	213.45	-1133.1	527.55	342.57	-1201.1	375.68	206.43	-1139.1	285.36	224	-1200.9	299.03	215.43	-1139.1	363.01	214.64	-1189.5	102.45	249.47	-1171.8	100.44	340.95	-1258.6	70.546	307.75	-1245.4	48.303	339.05	-1259.8	41.81	279.29	-1087.6	41.761	219.01	-1047.9	45.616	326.96	-998.75	61.846	265.76	-1306.6	1486.2	341.27	-1346.6	1221.2	329.13
54	0.22083	NaN	NaN	NaN	-1218.6	1445.1	489.27	-1211.5	1440.6	175.1	-1184.3	1748.6	339.61	-1129.1	1022.8	446.74	NaN	NaN	NaN	-1355.7	1048.1	370.68	-1347.4	1052.4	281.07	-1214	934.93	519.89	-1196.1	938.7	133.74	-1217.4	1100.3	490.65	-1234	1124.9	169.4	-1367.2	1013.7	320.8	-1169.8	691.94	514.25	-1077.7	601.93	497.69	-1157.3	599.57	496.04	-1097.5	689.88	513.59	-1098.8	516.96	490.12	-1088.7	502.27	367.24	-1260.5	435.24	487.63	-1259.7	343.47	479.71	-1317.1	385.61	475.12	-1207.5	397.31	493.22	-1435.4	244.33	452.58	-1399.9	222.64	372.18	-1478.2	282.21	391.35	-1493	254.3	361.56	-1507.7	266.44	424.18	-1438.1	129.03	492.64	-1394.2	87.686	398.4	-1358.3	62.795	446.44	-1236.5	676.58	193.62	-1142.9	589.29	195.26	-1214.3	592.59	216.68	-1166.4	671.58	170.17	-1152.1	508.61	213.22	-1131.4	527.57	342.38	-1200.2	375.95	206.22	-1138.3	285.43	223.86	-1200	299.33	215.23	-1138.1	363.07	214.49	-1189.4	102.57	249.45	-1171.6	100.68	340.89	-1258.5	70.714	307.77	-1245.4	48.465	339.02	-1259.7	42.006	279.28	-1087.5	41.724	218.98	-1047.9	45.566	326.93	-998.68	61.695	265.71	-1301.3	1487.1	340.82	-1341.3	1222.2	328.44
55	0.225	NaN	NaN	NaN	-1213.2	1446	488.96	-1206	1441.5	174.85	-1178.9	1749.5	339.34	-1124.1	1024.1	446.47	NaN	NaN	NaN	-1350.6	1049.3	370	-1342.2	1053.5	280.38	-1208.8	936.27	519.56	-1191.2	939.2	133.65	-1212.6	1101.6	490.14	-1228.4	1125.6	168.85	-1362.1	1014.9	320.16	-1161.7	693.58	514.39	-1069.2	604.36	497.1	-1148.7	601.32	496.34	-1089.6	692.15	513.1	-1089.6	519.09	489.77	-1079.5	504.53	366.79	-1250.5	435.17	487.54	-1248.4	343.7	479.51	-1306.5	384.79	475.22	-1197.2	398.09	492.94	-1423.1	242.64	452.73	-1387.4	221.14	372.27	-1467	278.98	391.22	-1481.4	250.48	361.61	-1495.9	262.83	424.2	-1423.1	127.67	493.7	-1378.5	86.606	399.68	-1342.1	62.774	448.06	-1233.7	677.6	193.67	-1140.9	589.49	195.09	-1212.2	593.37	216.57	-1163.7	672.03	170.08	-1150.7	508.82	212.98	-1129.8	527.59	342.19	-1199.2	376.23	206.01	-1137.6	285.52	223.7	-1199.2	299.65	215.02	-1137.2	363.14	214.32	-1189.2	102.69	249.42	-1171.4	100.92	340.82	-1258.5	70.887	307.78	-1245.3	48.641	338.98	-1259.6	42.206	279.27	-1087.5	41.684	218.96	-1047.8	45.523	326.89	-998.6	61.54	265.66	-1296.1	1488	340.37	-1336	1223.2	327.75
56	0.22917	NaN	NaN	NaN	-1207.9	1446.8	488.65	-1200.4	1442.5	174.6	-1173.5	1750.3	339.08	-1119.1	1025.4	446.22	NaN	NaN	NaN	-1345.5	1050.4	369.35	-1337	1054.7	279.71	-1203.7	937.62	519.25	-1186.3	939.69	133.59	-1207.8	1102.9	489.65	-1222.8	1126.2	168.32	-1357	1016.1	319.54	-1153.7	695.22	514.53	-1060.8	606.8	496.47	-1140.2	603.07	496.62	-1081.8	694.41	512.59	-1080.4	521.22	489.37	-1070.5	506.78	366.32	-1240.7	435	487.43	-1237.1	343.84	479.33	-1295.9	383.83	475.31	-1186.8	398.81	492.66	-1410.6	240.71	452.9	-1374.8	219.44	372.4	-1455.7	275.48	391.14	-1469.6	246.42	361.71	-1483.9	258.94	424.29	-1407.9	126.11	494.74	-1362.7	85.4	400.9	-1325.8	62.647	449.6	-1230.9	678.61	193.69	-1138.8	589.68	194.92	-1210.1	594.15	216.43	-1161	672.48	170	-1149.2	509.03	212.73	-1128.2	527.62	342	-1198.3	376.51	205.8	-1136.9	285.62	223.54	-1198.4	299.99	214.81	-1136.3	363.22	214.15	-1189.1	102.81	249.39	-1171.2	101.18	340.74	-1258.5	71.065	307.8	-1245.3	48.828	338.94	-1259.6	42.41	279.25	-1087.5	41.642	218.93	-1047.8	45.484	326.86	-998.52	61.379	265.6	-1290.8	1488.9	339.92	-1330.8	1224.1	327.07
57	0.23333	NaN	NaN	NaN	-1202.5	1447.7	488.33	-1194.9	1443.5	174.35	-1168.1	1751.2	338.83	-1114.2	1026.7	446	NaN	NaN	NaN	-1340.4	1051.6	368.72	-1331.9	1055.8	279.07	-1198.5	938.96	518.98	-1181.5	940.17	133.55	-1203	1104.2	489.16	-1217.1	1126.9	167.8	-1351.9	1017.2	318.96	-1145.7	696.86	514.66	-1052.4	609.22	495.8	-1131.7	604.83	496.87	-1074	696.64	512.06	-1071.3	523.34	488.94	-1061.6	509	365.81	-1230.8	434.75	487.3	-1225.7	343.88	479.17	-1285.3	382.74	475.37	-1176.5	399.47	492.41	-1398.1	238.54	453.09	-1362.1	217.56	372.58	-1444.3	271.75	391.13	-1457.6	242.13	361.88	-1471.7	254.78	424.44	-1392.5	124.37	495.75	-1346.6	84.083	402.07	-1309.3	62.424	451.05	-1228.1	679.62	193.7	-1136.8	589.87	194.76	-1207.9	594.93	216.28	-1158.3	672.92	169.9	-1147.7	509.25	212.47	-1126.6	527.64	341.82	-1197.3	376.79	205.6	-1136.1	285.73	223.38	-1197.6	300.34	214.6	-1135.4	363.31	213.97	-1189	102.94	249.36	-1171	101.45	340.66	-1258.4	71.248	307.81	-1245.3	49.025	338.91	-1259.5	42.618	279.23	-1087.4	41.598	218.9	-1047.7	45.447	326.81	-998.44	61.213	265.55	-1285.5	1489.8	339.48	-1325.5	1225.1	326.38
58	0.2375	NaN	NaN	NaN	-1197.2	1448.5	488.02	-1189.3	1444.4	174.11	-1162.7	1752	338.59	-1109.3	1028	445.8	NaN	NaN	NaN	-1335.3	1052.7	368.13	-1326.8	1056.9	278.46	-1193.4	940.3	518.75	-1176.7	940.62	133.52	-1198.2	1105.4	488.7	-1211.4	1127.5	167.3	-1346.8	1018.3	318.41	-1137.9	698.49	514.78	-1044.1	611.62	495.07	-1123.3	606.58	497.09	-1066.3	698.85	511.5	-1062.4	525.46	488.47	-1052.9	511.19	365.27	-1221	434.42	487.16	-1214.4	343.85	479.03	-1274.7	381.54	475.42	-1166.2	400.08	492.18	-1385.4	236.14	453.32	-1349.3	215.51	372.8	-1432.7	267.79	391.18	-1445.4	237.63	362.1	-1459.4	250.37	424.66	-1377	122.45	496.74	-1330.4	82.671	403.17	-1292.7	62.119	452.39	-1225.4	680.61	193.68	-1134.9	590.05	194.62	-1205.8	595.69	216.11	-1155.6	673.35	169.81	-1146.3	509.47	212.22	-1125.1	527.67	341.64	-1196.4	377.07	205.4	-1135.4	285.85	223.21	-1196.8	300.71	214.39	-1134.5	363.41	213.78	-1188.8	103.07	249.33	-1170.8	101.73	340.58	-1258.4	71.436	307.82	-1245.3	49.23	338.87	-1259.4	42.829	279.21	-1087.4	41.554	218.88	-1047.6	45.412	326.77	-998.35	61.041	265.49	-1280.2	1490.6	339.05	-1320.2	1226	325.7
59	0.24167	NaN	NaN	NaN	-1192	1449.4	487.7	-1183.8	1445.3	173.87	-1157.3	1752.8	338.37	-1104.4	1029.2	445.62	NaN	NaN	NaN	-1330.2	1053.8	367.57	-1321.7	1058.1	277.88	-1188.2	941.63	518.54	-1171.8	941.06	133.51	-1193.5	1106.6	488.25	-1205.8	1128.1	166.82	-1341.7	1019.4	317.9	-1130.2	700.11	514.9	-1035.9	613.99	494.32	-1115.1	608.32	497.28	-1058.6	701.03	510.92	-1053.5	527.56	487.96	-1044.3	513.34	364.71	-1211.3	434.01	487.02	-1203	343.74	478.91	-1264	380.23	475.45	-1155.8	400.64	491.98	-1372.6	233.53	453.56	-1336.4	213.31	373.06	-1420.9	263.6	391.31	-1433	232.93	362.4	-1446.9	245.74	424.95	-1361.3	120.37	497.7	-1314	81.181	404.2	-1275.9	61.746	453.63	-1222.6	681.59	193.64	-1132.9	590.22	194.49	-1203.6	596.43	215.93	-1152.8	673.76	169.71	-1144.8	509.69	211.97	-1123.6	527.7	341.48	-1195.5	377.34	205.22	-1134.7	285.98	223.04	-1195.9	301.09	214.2	-1133.6	363.51	213.59	-1188.7	103.2	249.31	-1170.5	102.02	340.49	-1258.4	71.627	307.84	-1245.3	49.441	338.84	-1259.3	43.042	279.19	-1087.3	41.511	218.85	-1047.6	45.376	326.73	-998.26	60.864	265.43	-1275	1491.4	338.61	-1314.9	1226.9	325.03
